<mxfile>
    <diagram id="NYTAx4Dvtc4fCASbJE2k" name="Page-1">
        <mxGraphModel dx="843" dy="378" grid="1" gridSize="10" guides="1" tooltips="1" connect="1" arrows="1" fold="1" page="1" pageScale="1" pageWidth="827" pageHeight="1169" math="0" shadow="0">
            <root>
                <mxCell id="0"/>
                <mxCell id="1" parent="0"/>
                <mxCell id="14" value="&lt;h1&gt;0&lt;/h1&gt;" style="ellipse;whiteSpace=wrap;html=1;aspect=fixed;" parent="1" vertex="1">
                    <mxGeometry x="360" y="160" width="80" height="80" as="geometry"/>
                </mxCell>
                <mxCell id="15" value="&lt;h1&gt;1&lt;/h1&gt;" style="ellipse;whiteSpace=wrap;html=1;aspect=fixed;" parent="1" vertex="1">
                    <mxGeometry x="250" y="280" width="80" height="80" as="geometry"/>
                </mxCell>
                <mxCell id="16" value="&lt;h1&gt;2&lt;/h1&gt;" style="ellipse;whiteSpace=wrap;html=1;aspect=fixed;" parent="1" vertex="1">
                    <mxGeometry x="480" y="280" width="80" height="80" as="geometry"/>
                </mxCell>
                <mxCell id="17" value="" style="endArrow=none;html=1;" parent="1" edge="1">
                    <mxGeometry width="50" height="50" relative="1" as="geometry">
                        <mxPoint x="320" y="280" as="sourcePoint"/>
                        <mxPoint x="370" y="230" as="targetPoint"/>
                        <Array as="points">
                            <mxPoint x="310" y="290"/>
                            <mxPoint x="320" y="280"/>
                        </Array>
                    </mxGeometry>
                </mxCell>
                <mxCell id="18" value="" style="endArrow=none;html=1;entryX=0;entryY=0;entryDx=0;entryDy=0;exitX=1;exitY=1;exitDx=0;exitDy=0;" parent="1" source="14" target="16" edge="1">
                    <mxGeometry width="50" height="50" relative="1" as="geometry">
                        <mxPoint x="420" y="260" as="sourcePoint"/>
                        <mxPoint x="470" y="210" as="targetPoint"/>
                    </mxGeometry>
                </mxCell>
                <mxCell id="23" value="&lt;div style=&quot;color: rgb(212 , 212 , 212) ; background-color: rgb(30 , 30 , 30) ; font-family: &amp;#34;droid sans mono&amp;#34; , monospace , monospace , &amp;#34;droid sans fallback&amp;#34; ; font-size: 14px ; line-height: 19px&quot;&gt;&lt;span style=&quot;color: #dcdcaa&quot;&gt;distanceBtwTwoNodes&lt;/span&gt;(&lt;span style=&quot;color: #b5cea8&quot;&gt;3&lt;/span&gt;,&lt;span style=&quot;color: #b5cea8&quot;&gt;5&lt;/span&gt;) = 4&lt;/div&gt;" style="text;html=1;strokeColor=none;fillColor=none;align=center;verticalAlign=middle;whiteSpace=wrap;rounded=0;" parent="1" vertex="1">
                    <mxGeometry x="269.5" y="120" width="261" height="20" as="geometry"/>
                </mxCell>
                <mxCell id="24" value="&lt;h1&gt;&lt;span style=&quot;color: rgb(39 , 50 , 57) ; font-family: , sans-serif ; font-size: 32px ; text-align: left ; background-color: rgb(255 , 255 , 255)&quot;&gt;Find distance between two nodes of a Binary Tree&lt;/span&gt;&lt;br&gt;&lt;/h1&gt;" style="text;html=1;strokeColor=none;fillColor=none;align=center;verticalAlign=middle;whiteSpace=wrap;rounded=0;" parent="1" vertex="1">
                    <mxGeometry x="10" y="20" width="800" height="60" as="geometry"/>
                </mxCell>
                <mxCell id="25" value="&lt;h2&gt;Case 1&lt;/h2&gt;" style="text;html=1;align=center;verticalAlign=middle;resizable=0;points=[];autosize=1;" parent="1" vertex="1">
                    <mxGeometry x="90" y="120" width="70" height="50" as="geometry"/>
                </mxCell>
                <mxCell id="43" value="&lt;h1&gt;3&lt;/h1&gt;" style="ellipse;whiteSpace=wrap;html=1;aspect=fixed;fillColor=#0050ef;strokeColor=#001DBC;fontColor=#ffffff;" parent="1" vertex="1">
                    <mxGeometry x="160" y="400" width="80" height="80" as="geometry"/>
                </mxCell>
                <mxCell id="44" value="&lt;h1&gt;4&lt;/h1&gt;" style="ellipse;whiteSpace=wrap;html=1;aspect=fixed;" parent="1" vertex="1">
                    <mxGeometry x="400" y="400" width="80" height="80" as="geometry"/>
                </mxCell>
                <mxCell id="45" value="&lt;h1&gt;5&lt;/h1&gt;" style="ellipse;whiteSpace=wrap;html=1;aspect=fixed;fillColor=#0050ef;strokeColor=#001DBC;fontColor=#ffffff;" parent="1" vertex="1">
                    <mxGeometry x="560" y="400" width="80" height="80" as="geometry"/>
                </mxCell>
                <mxCell id="46" value="" style="endArrow=none;html=1;entryX=0;entryY=1;entryDx=0;entryDy=0;exitX=0.783;exitY=0.075;exitDx=0;exitDy=0;exitPerimeter=0;" parent="1" source="43" target="15" edge="1">
                    <mxGeometry width="50" height="50" relative="1" as="geometry">
                        <mxPoint x="360" y="400" as="sourcePoint"/>
                        <mxPoint x="410" y="350" as="targetPoint"/>
                    </mxGeometry>
                </mxCell>
                <mxCell id="47" value="" style="endArrow=none;html=1;" parent="1" source="44" target="16" edge="1">
                    <mxGeometry width="50" height="50" relative="1" as="geometry">
                        <mxPoint x="232.6400000000001" y="416" as="sourcePoint"/>
                        <mxPoint x="271.7157287525381" y="358.284271247462" as="targetPoint"/>
                    </mxGeometry>
                </mxCell>
                <mxCell id="48" value="" style="endArrow=none;html=1;exitX=0.358;exitY=0.025;exitDx=0;exitDy=0;exitPerimeter=0;" parent="1" source="45" edge="1">
                    <mxGeometry width="50" height="50" relative="1" as="geometry">
                        <mxPoint x="242.6400000000001" y="426" as="sourcePoint"/>
                        <mxPoint x="546" y="351" as="targetPoint"/>
                    </mxGeometry>
                </mxCell>
                <mxCell id="53" value="1" style="text;html=1;align=center;verticalAlign=middle;resizable=0;points=[];autosize=1;" vertex="1" parent="1">
                    <mxGeometry x="196.5" y="350" width="20" height="20" as="geometry"/>
                </mxCell>
                <mxCell id="54" value="2" style="text;html=1;align=center;verticalAlign=middle;resizable=0;points=[];autosize=1;" vertex="1" parent="1">
                    <mxGeometry x="300" y="220" width="20" height="20" as="geometry"/>
                </mxCell>
                <mxCell id="55" value="3" style="text;html=1;align=center;verticalAlign=middle;resizable=0;points=[];autosize=1;" vertex="1" parent="1">
                    <mxGeometry x="470" y="230" width="20" height="20" as="geometry"/>
                </mxCell>
                <mxCell id="56" value="4" style="text;html=1;align=center;verticalAlign=middle;resizable=0;points=[];autosize=1;" vertex="1" parent="1">
                    <mxGeometry x="575" y="345" width="20" height="20" as="geometry"/>
                </mxCell>
                <mxCell id="57" value="" style="shape=image;verticalLabelPosition=bottom;labelBackgroundColor=#ffffff;verticalAlign=top;aspect=fixed;imageAspect=0;image=data:image/png,iVBORw0KGgoAAAANSUhEUgAAAqIAAAFjCAYAAADmXWl/AAAAAXNSR0IArs4c6QAAAARnQU1BAACxjwv8YQUAAAAJcEhZcwAADsIAAA7CARUoSoAAADopSURBVHhe7d1fiBxlvv/xr+dqBk6Evsw4jqYlu4vxLojB4ZA4SDjCcffCJZCD/3IxhMULFyHLajwEcaOLAfnthSwyF9Eov0BYL1YPeAgyGmQkIrnTxXWwJ47j5LLBHJi5+/3qqXpqurq6quup/09VvV/QzHRPz3R199NPfeZbz/PUHf/PIQAAAEDF/kV/BQAAACpFEAUAAEAtCKIAAACoBUEUAAAAtSCIAgAAoBYEUQAAANSC5ZsAACjC9YEce2Wor0x38NQhWTkxo6813a5cfu4beXvQk/Mf92VR3wqYoCIKAACAWlARBQCgCLoi2q5qpwkqosiOiigAAABqQRAFAKAuW7dk+bEbcuyxgazpmzyqyqhu/4dc3tI3ufzbw5e43/duX7sQuO8Ffxxr6G/t3a5M+f2Jx5pi7/mNLq9d1z8LUxXl0H2Xr+zqH6KtCKIAANRlfr/816lZ55uhvBMIXZtXBvL2QE1q6svJeX2jG+rUIXB9fcxQzk6EVs81J0SeXdVXlNWBEwZV0Az9Lef2qOC3eeUf478/5bGC3PC6vC3r+rrv6ivO7WOh13uMqIle6xe/kWPP3ZJNfR3tQxAFUIs77rjD6AI0jRueQpW98ct4RXHhRF9O99XvDbxw5wTOVy/uiPTn5L8CY03XLnuhTo1B/ezjw4FLX46799iR1S/CQXIoV1fV2E1933M999arrzghVObkUuj29WvDUOgbytvOthw/p+/nXM4vqdt35O3LU1YIuD7Q4TXw2O7lkPtcvTCsfq4M5X31fGVWTq9E3HcwlLWE0IvmIogCKF2egBn1u+oCtMeMnHxxTg6qcPe6E9BeV4HTCWUv7pcFfQ9l8YwX0CYnQvXkSbeqGu34ucAEoiM9HVpDf9+/fbAjP7o3jKjg+9IRfcWxeEYH31UnIKqvEdY+VyFVBcvw5CXnub7l/f5V9z7TqPuq53z/qCqM1iGIAihcFaGx7L8PZDVZsQxfImaW+4foB0O5Gj4kH2s0xvNpt6IYZVYOjP0d57qqMjohb8Eo3M3K0sOTwfeoWxXdlc3ISqVz+0311QnWy+FqsLoM5Kr68U3nfurr3t8bvz/jQ7uBIAqgMHUFQwIp2mDh4Z4cdL+LCn9KaHJR7HjRINPAmc7d96gK7I5sRAZR5/bE7XIEqq+q2usd8h8ZDXFIMTkKjUMQBZCLHwJtCII2bQuQjhMy3UPyijpEPzlBZ+3CePAMjtu8NOXQfBl+/MEb0zlebfX5Vdfw+NDwZbwy7A892BsbumcoZ0OTm9AeBFEAmWUNfOo8GmkuWRBG0SSjWfKHvFA52JZXxw5ND+WamvzTH00wGo3b3JW1a3GH5vOKngDlbktstdW5/V711blf3FJNU/ljQ72w6o5H3TuMj7YhiAJILW3VMW+wzPr7abcTqEVolvzELPqgiRnkQ3nN6BB9duPboYYH6DGeS73Ysygt/ps/O39y3VB3qSZ1yN2vcsaupeq4PvQeC63FKT4BpGIa7KrqWmzbHnSYPsWnEVXZfEvNWvfX81QzzAOzw1U4U2tw7t3PW5dzfD3PCEt9+eyMCoH+3w2fdjPudhVoVcD0bx9t18H+jqxPBN3g70f/zenbm+a+odcGrUJFFIAR0+qiCnxVhj7TxzPdfqBK/iF5Wdo/HrTm98uzavJO4BB91IQexZ2lv6KWf3KUcAh76cXQ47rDA4IhNpo75lOvTzpGheXQ78fe130sQmibUREFkMg0gNqgSdsK2CumUgsUjIoogKmSgp0KdTYFO5PtoTIKAHYgiAKIZRJCbUUYBQD7EUQBRJoW1EyqjjZI2k7CKADUizGiACLFhbSmdhlJwRoAUD0qogAmtC2EKoRNALAPQRTAmDaGUF/cc+AQPQDUgyAKAA7CKABUjyAKYE+bq6E+DtEDgD0IogBcXQihPg7RA4AdCKIAAACoBUEUQKwyq6Eb3z0v9334pqzq61XjED0A1I8gCqD6Q9K33pRHvx3oK3bh8DwAVIcgCiBSWRVDtxL61af6Wr2oigJAvQiiAKpx+2/ymw8f9yqhdz4iT9ypbwcAdBZBFEAlVr97V752vj7wq7/K98dOyEHvZgCtsiuXn7shxx6LuVwY6vtF2Loly+79/iGXt/RtaD2CKNBxVY2JXDr8kXz/64/k77+Y17fYIerwPONEgax2ZGPa8O/VgRtIl6/s6huK4gdggxB7XW3DQNb01ThrFwoMxe5j6jA+cRl/jM0r/3BuS96+OnjbNr79ed9LgiiACYydBJBPT85/fFg+G7v05bj+6frFbyYDzPx+WXHvd7+cLOv/VVV1fWUox8/1ZVHfFEUFrrMFLumxuWke1hZO9OV0fyhnp1WPa6CC+dMXd/S1EfVeHnvulmzq62kRRAEAQAV68pITNC+dmnWvrV8cVH4Ifu3ytqz35+TJI/qGKNcHkYErjx9/UH9vVk6vhMN5VPCekZNP9dzq8WvX9U11c14TL5iHnsPKnDfMarAtr2asjBJEAQBAZbyKn/puR1a/CIaXobzmHu6NOCwdPrQdqMB5h9C/kbfdIQE78vby6H5jQW7rlrzjhKnjT+2XBX3TBF0xlX5PjrvbWIRd2bypvs7Igmml98ic+xpdfS97pbE4u3L5PVWdVSE0FJpVFVuH0fVrw0zbShAFAAAV0hU/x7pbKUygQqgKh0EZKnBuNVR6cjS2GuoErte9+5x/a04O6Fvz0+Nml3pThwOMm5HFo7Pu83w/c1U0YeKYf0k8rO6P+40J0vMzuV4rgigAAKjW/Kx3SPfmbkIIClbjRoeE/cP7yuIZddshXWUdv99Le6FzKNfUoeUpYXDtgqqqqt+fPn40tetDuep8OXjPrK7eji7TJvosPNxzX6Orn9c9VtQbUqHG+Ea+Llu7sqG+3usEVfeGdAiiAACgURZO3C8rJ2b0NQOBMBjFn5x0/FzxE6X8iUpqUk94AtTUiT5+pTExrMeZkZNvjUJ57OWtKUMVEgWqyGe8KndaBFEAAGAp/zC+HvuZcSa5HwYPLESEV39y0lI/UEEtjjdRyeH8/XAIPL/k3B47zGBWDqgq72Aoa5auq+pVkVWAz15FJogCHdf1dTSjnivLVwEl29qRdfXV5HDuESfAndPVNr0OadrlgvxZ6wfC1c69yUlzciljRS+JN3TAuUT8/cUz3pJW0RN9nNfmXv2tdbzxp14VOTgEIj2CKAAAqJA/7jP+UPkEFUbdKqJei3SwLU/nWLvSt/nF0AvE6u8Fxm5OzsIva4F5v+q5Iz96NxSoqMlKIe4ZsPzxtPlCqEIQBVCDeVk+ps609IKoI1MAumPzykCHvJ48m2acp0tNnNETkyw+ZN1aagWDZW8t1ksFnXiAIAogUhcOz3MqT6BKXoXOXyzebFyhWls0fJrNqOWE/MPY4bVJPXe7lVfn90LBVU16Co7ZHF3Cs/CzjoGcsjaqsjVUow1E+rNyt3dLgL/+aFbFTlZyT++phjGosa65JjiNI4gCYExkAK8FUIShnA0fAt473C1y8NShFId0xxepV6FOzYAPL8XkhU09E13f11/QfkFPUtpIcarNYvTkqHvYJ+qUnf6M87hF9nXg7jvPs+CZ/KkFJnRFjXXNgyAKIFabK4ZUQ4Ey6DGPMVQAVVU486WXevKSfxrJAPfvhAKRqm66s9D3BCYnHel5k4JMFtBP5Fc5w5XaaP6EpL2JVnsXL5jHhvKc63MWx3m+/gkFJp5D4JJxzO4dzn///PsPIDaYtbWL6NrzBbpOLSZ/drUn540Os6thBP6EnPBYSBVEVVU26mfxvMfXV1zTf18dCn/6oqR6jFJEndkqiho3muGQPUEUwJ6uhDNCKNBBarb38rbIqUPpFsOPpMLoUI5mHjuaRAdhyRbumoRD8wAStekwdpueC4AU5vfLs0txa3ampM7UFDnBqCDXt93D9tFjR9uFIArADWddD2hUQ4H2Wzw5JwcH2/K+nsSUza5cfm9XTr9YVkhUf9+bnV7GmZ5sw6F5oMPShs+mdxdxz5duEOgQd8yjGI4VrZ43NnTG2u0rGkEU6KA81c+mdhnTnjPdIADUg0PzQIeoMJYnhCp5f78OhFAAsBMVUaDl0gbHYJeQ9Lu2dx9N334AaDuCKNBSeQJoUFPDnOnzpwsEgPoQRIGWKSqABpn8TVu6krTP30dXCBTBXwheXw2bdopIvc7nesqF4tFsjBEFWkIFsDQhTAUv0/BlGlazhsAi5H38OrcdaA99fvQ4+hSRy1eKPue7CsDqVJMGp91Us+YfG8iavhpHnQnJ9DSeRlTQDp0WM+p1ULPmTbavLQiiQMOlDWBpAmiQ6e/lDYRppXm8pO2vetuB9lKn0jzsnld+dNHnXHesX/xmMoTN75cV934lVkNVGHxlKMfPTV8aSYXB8dNx5uOGS7faO069DuFztC+c6Mvp/lDOXjA4rWbt/PPuZw/tBFGgodKGpqwBNMz0b/jbV0awS/u3g8/dZPvL2GYAPXnJCZqXTs2619YvDoqrNhpau+yEwf6cPDltofjrA3n64o6+UgAn/L7q/r1wONfBfGKB/Rk5+VTPrR6/lmvh/fJtXrklV/X3WRFEgYZJE8CUYAgrStq/6W9z2m335fn9qO002f4sjwUgmVfxU9/tyOoXwaqoX12LOCztHk4fHdIOVhG9Q+j+uNQdeXt5dL+xIOcEwndWE06bqSum0u/JcXcb83PDr/N1sgrrBPNz3njZq5+Hqp9H5tzX6Op749VSq/gBO+drRRAFGiJNMPKDVlLYyivr3/efi+klC5Pnb7L9WR8fQBxd8XOs/2BQeXTPhBQKaoNteTXlOFMvEPbkaGw1dFcuv+7d5/xbc3JA35rPUK6pQ/xxVdgjfa86OjGBa0YWj85GVEvT8MfNJlxCQwNMea/nrJx+Md9rRRAFLJcmjJmEr6L5j1n148ZJuy0m988TiAFEmJ+Vg+rrzd2EEKTPu+7OpB8d1vYP7yuLZ9Rth3SVdfx+o3O160C41IsdG7p2QVVV1e8XeGrNrV3ZUF/vnZGFiGA4bdLWwsM99zWaqJbawPnnQI2hPXiqn3s8L0EUsJTtATRKXdvhP26exzb5XcIoYIeFE/fLyokZfc3A9aE7lvHgPaMAG+RPTjp+ruCJUls77mH5g/fsymt7wwdGoiYr7Zmf8SqNiWE9zoycfGsUymMvb00ZqhDJ/+egJ8+meQ9iEEQBi/jhs2kBNMzfrjK3rYzHMPl7ad4fAHn5h/H12M+MM8k3N73K44GFiODkT05a6gcqqMVav7jtBOHxau1eFTd2mMGsHHB/PpS1iid1TbN5ZeAG6qSVB0wRRAELpA03RQewMvnbGrykVcTfSMPk7xNGgRx0pdA7ZJ1AjaPUk3r8dUjTjmv80R2L6gS7cLVzb3LSnFyKW2i/ECqEhqutqmLpzZxfvzaMeD7Oa3Ov/tYWexOUElYeSIEgCtSozQF0Gv95mF7qYPLYad8/AIp/aDf+UPkEf1JPYMmjpzNOsgna/GLoBWL19wJjNydn4WdcYN4fC9vvyWLkIX+/6rkjP3o3FKj4yUqjCUppD+fHI4gCNehqAG0ik9edMAqY8w/tZhtjqNYi9Q9p23XIuvUKnKAURBAFKkQAbSaT9yHtewt0j1eh8xeLNxtjqNYWDZ+xxz+N6Iws7AUi/zB2eG1Sz91u5dX5vVBwVZOeRmM2g5fwLPyM4yHne2roqVtxjVyGaWuoRhuI9Gflbu+WgF3ZvKm/zaTYyUr+OFt3gtVYVXVyDdc0C/ETRIEKEEDbweQ9IYwCylDOjoWVYGBRVbVDKSYGjS9Srw6Tu2fzCS3F5IXN8aDkB6IFPUlpQ4ep6ozWTL36SjhQO8HcXbc0bpF9HbhjD+u3A0EUKBEBtH1M3qO07zvQHnrMYwwVQFUVznzppZ68tDLnjbMMcP9OaHKRqm6eX9JXXIHJSUd63qQgkwX0E/lngDI8t/qRvt6ucKDWwTxutv7YGqT1M68eB9dvTXaH06Gy1wMKljZ8oplM3mfeX8AO6lSgZ1fV+d5NDrOrYQQqKEbNdldBVFVlo342RcQZoo6fiw9tam3Tpy9KuseoxbTXKhlBFCgQAbSbCKRAA6ilmpa3RU4dSrcYfiQVRodyNOvY0UQ63MmcXEq94HzV8gVRDs0DBVBBxDSEqkBCKGkXk/czTRsBUIL5/fLsUtyanSmpMzVFTjAqyPVt97B99NhR2/iTorJVbgmiQEZ+sCCAQjF9fwmjQH0WT87JwbgZ7MZ25fJ7u4WupTlO/f1hqWd6sgmH5oGU0gYJPmLdZNJOaBtADdyxmmI4VrR63tjQGWu3r2gEUcAQARRpEUYBYDqCKJCAAIq8CKQAEI0gCsQggKJIhFEAmEQQBUIIoCgTgRQARgiigEYARVUIowDgIYii89IEUD4uKBKBFO3kL3Cur4Yt9SdOz7lHLzq/nvasRWnEzJr3ZqsHTwFqehambLwzPU0+z67NmmcdUXSWCgGmIVSFAQIBimbSptL8owTYYUc24kKosuoEwcduyPKVXX1DUVQATjgHvAq6rwzl+LlgyPN+bzyEKkM562zna7nWHI2mwubZVX0lZOFEX073nce+MH46UDv4r3HwYnjO/RgEUXQOARQ2MWljadosYA9VUVRn3Ale+nJc/3T94jeTYXR+v6y49yunGrp2eVvW+3PyZHCheH0Wo/D2Xjo16/746isDWXO/K8j1QUToDZqRk0/13MBeRgjOTFWSH4uqdO/I28vZAztBFJ3g78gJoLCVSXsjjKL5evJSIOStXxzkqqalsnVL3lkNnzZTn8XIHQowfih84cT9cn5Jfbcrm0Vto67ISr8nx/v6tihH5uS08/Or793KfzrSQqnXaRTWP/v4kLudStZtJYii1dKET4UAijqZtL+0bRqwkXf4WX23I6tfBKuiQ3nNPdwbUYV0K3KBQ8LPjYKPGm85qtZ5FTr/fn6lzq2GOkH46NhpM6edJ90JoDf1t4VwQu/r3jacf2tODuhbo83I4lEnrOc6HWnUYfSIS+B1nOpIP+J1cl6/F+fkoL6WBUEUrUQARZOZtEXCKJpNH352rP8w7TC15k4wCo2ZdELaqynGmV5TYzKXesYTgNYu6GC7tL+QYQLe35usvMZZeLjnBryrn9s4VjRga8cJ1457ZzKde58gilYhgKItTNpm2vYOWGV+1quk3dxNqMgFD5+PDgv7h/eVxTPBw8Tj93tJV0CvOpeD94x+J5I6dK4rhWoy0cFTh+Jn+KfgT046fi7F2Nf5Ga9qmvj6xPGrvQmXt4JDFVLyhxqo1/xktteJIIpWIICirUzaKYEUXaTGcK6cmNHXzBxYSHd/NaHK+NB1HH9y0lJ/LxSbmZUDKlgPhrJW1TjaJIGg7l7cpbbUJK/sk8sIomg0Aii6wLTdEkbRTv5hfD32M/OyRk6wSwpLe7P2vYs7WWmwLU9nfcy9yUlzcil1ZXVGFu7V31pNLXOVfWUBgigaiQCKLjINowRSNEKasYVqosw5HeT0OqS5K5UGFs/o5aZWh5mC1uYXQ+85qjAbrCROTKwqeIkoV8GTlZRQUB8Nh8geRgmiaJQ0O1k/fBJA0SambZowCrv54z4Nxm363FnbKvzocKjCXelhVB8eRww1DnUURt/JcJICgigaIUsABdrMpJ2n+dwAVdq8MtAVwZ48m3Kcp7cWqQ4/qcZP7sjGxH2nLBfl0meJ6s/K3d4NqahxrKPqYfASnlgVNZM+7/JRFUxWcumlpjIiiMJqBFBgOpM2TxiFPbzDxf6ZhcZPtRlHhcXwaST904jOyMLeuE9/TGV4bdKRjc3w7T056i5aH3VKTbWtA2+2/dFezrCWhR+Ce7JYwPJRZfrRZAmuGARRWMcPnwRQwIzJZyDNZwoohneu9vExiaNTRKqlkcxnkY8vUq8qmCoghtcFvVsf5ndnu+v7+gvaq8P5UWuWLp7R1Ul/7OnexV9HtB+ane9XUfOdYz3R1q5sqK8Z1+csmjveNGLSljqZgHfe/FlZejhtdZsgCouk3VESQIFxJp8HwijKN31cpbs258eHUyy91JOXVibP3hO1xufotJy+0Ux5t/IZOenIO4QdXJfUd/zc4ULWEc3Cm+iUfX3OUkyEdT+EplwjNeAOp+NiT45apd0x0mSBZCafKz5L6BS1lNLytogTYNOuPzpJVUWHcjRybGcR1LCAb+RtmZNLucdwFijqDFfuOqLZXweCKPaYBsKimgwBFChXXWG06r4EMOUeRr5ZQLhTgey92fJCog58qiKbbhH85uHQfEepHUX4Yirqd9XFVNr7q50VOywgPZPPTtrPY5j/+8GLqajfVRegLIsn5+TgYFve1+NGs1FLT+3K6RfLqlTqpa1Sn4mpmaiIdkTVnXtUs0q7DTRNoDgmnz+Tz5wNfQmQi1ttlFyHk8ukzkv/9MUZa7evaATRlqu7uuA3rzTbQZMEypM1kNrSlwBoF4JoC9W9w8iCZghUxzSM2tqX0F8A7UEQbZmsO460zaCoHRTND6hPGUGzqr6EvgNoB4JoS6TtzIt+2+t+fADZ5A2j9CUA8iCItoBpx13VW23b9gBIliYA0pcAKArLNzWY6qRNOmrVSVfZUZs+nun2AyhXmsBHX4LGU7PmHxtMnGFJzVYPnzVo+Ur0OeuLoNY0jTpNqLcdk9vXVlREG8qk07XlrW3StgJdQ1+CYukzAunzyU9Y6sefMlOf+cg9reVKttNFJtKPcSC0UPzofOkR+sWf3chbokmd9z7querX8N4pr1VtRu+vOsVq/jNUURFtpKTOWHXENnXGJttjsoMBUCz6EhRvRzbiQqiiz1VefKVRBaToCmPQ2mUn6DrB8sngQvHXBzqEqlB42D0Pvnvxz28/2JZXi9xe5/G8EBpnRk4+5QRQ57V6LdfC+wVzK8lT/snIiCDaMCY7DluxAwHsQV+CcqnzjwdCnXvpy3H90/WL30yG0fn9suLer7xq6DtO4Dz+VLC6qc9iFFWZVNujw+j6taFserfmoyqy6lzt/Z4c7+vbohyZk9POz6++d6uYx81Fh3x3u+fk0rliq7QE0QaZ1rmqjtnmHYcvaTvZgQDloy9BPXrykhM0L52ada+tXxxMrV4Wza2GOttwdOy0mX4Fd0YWosLv/Iwc0N/m5wS6171tOP/WXMLfnZHFo87rlOt0pH6VOOHyXFLY9V4jdd77z0o4tz5BtAWasNMIYwcC2Ie+BFVYONF3q30q4Kx+EayKDuU1NxxFTNRxDwtHhydv0o9/yHhH3l4e3W90aHso19Th96Ve6LSZXjhW1drI02lu7cqG+nqvE1TdG7Jbu6C2UVVezU7dufBwz63GXv1cVWzr5L1GZZ33niDaEHEdahN3HL4mbzvQVPQlqJ8eA+lY/2HaWElNhVB1WDgo7bjN60O56nw5eI9XjTUTqGDmnDSkJiepcajHz6UYduBXY2/uZjw877zOb/nDIqZcSqhypkEQbYA27jh8cc+BSgZQPPoSWGN+1psIlBiygmM4R+HJP7yvLJ5Rtx3SVdbx+/lVvM1NL7QeWDCf5e1VMFV4NKtgxvInJy31U1YVZ+WAek6DoaxVOIShagRRWIsdCIAi0Je0z8KJ+1MtHfSjW3l1gp1RNdIbW+lVMHMekt6bnDQnl1JXVWdk4V79bYsRRC3X5gqGr03PBbAVfQmayT+Mr8d+Xih5vKQKju54U6+ymndc5OYXQ1lX3wy25engGNeJMa1lLGBf1GSlchFELdaFHYcv7jlRyQDyq6Mv2fjuebnvw8cDlzfFXaqxZPQlDbG14wU0k0lAR/rymb9kkF6HtJTwpMaiqgX1VfWyrCWkMIEgCgAo0JasfPa4PPqtW+4J+FSWnUD6h1v6KjrMH/eZYvKQCqPuuE+9FqmqMKYIo3e7j7MjGzFjLd3TaqpD6OrMTwVO3lFDCPzxquOX8JjWqHGou7J5U3+bCZOVUIIiKxiTFYvH5Tff1Tciuo2VXsBWpX3ebl2RP/+svnlEVn79kXyvL5/8yt3rygdflV8ZpS+x2+aVgT4s3ZNnU58iUi0lpENcikk8C3qS0oaetDQmMJnIrlNq6jVO+z1ZbHF1liBqqbIPI63eiKpYiHz97e/kvs/+5q2bZgkOqQHZVfv52ZKVf37qfO3LHx95QZa8G10HfvEXWblLffeDfH/bvaly9CV188Ys+qe3NJuNrtYWDZ+2M2oRen9iT3htUu1Iz62kTi4X5fx9f2ko/7B/1GWs+uqvdzr9dKK5FbiGqc0Iog1S2H/5t96U5Z/UN2pnMapYfP/IM/KAuvnnd+X3NVVGqWQA5SvvczYvy8dUf/IXWd6nb9qzVWkApS+p21DOhsNc4DzlB08dSjERaHyRejWxR60JGl6c3jv87p0+1L/vaEH7nhxV/xmtDscnBen1RW3kTXSaldMn667S+sFbX3RwD77OeSaREUQ7J1ixCO0s9v1W/q7D6Nfb162qigJottUbv/MO2d/1nxEhFe2h176MoQKoGpdovvRST17S53sPcv9O6DC6Go95PliGDy3XtHhS/Z2hvBNcCH9v7GnCZWwcpRoeoMaqBiuyafnjN+MmRe3K2rWd1h+WV+5w/mvk30YLRR1CKuat+lL+8OGf5AN3/Nb4oTOP/vmdz8gnx35b4Dl2zZX33IHuqfXzdPtv8ptP35Wv9dUHfvVX+fsvqtur0pcgTJ0O9OzNObmUd4KOmmH/3mz+vxNHn00q9zqmDUBF1ELljmN6SN5wD8VHhVDH7R/ln+rrvrtrCaFK1I6i3NcEaCfbPjdVj0GnL0GYWxUdbMv7e4fss1Cz/nfl9ItlzTbXqwqkPhNTM1ERtVB9/8WrZVfU4bO4aml16nsNgPaw7XOkJkm649Pvelm+P/yQd2PJ6Eswwa02ipyPXDKpfmopqacvzli7fUUjiFqoro7T30k88eBH8sZ+fWNN2HkA+dn3OUoaGlQ8+hLAbhyah8NbgNqWEAqgre6Sg3fqbwHAQRDtOjWZ4EN1ON5byokQCiA7VfGcdjrPn2RdzZy/c6G2MegA7EIQ7bJbb8p9akarmiEfue4fAKTxkPy7u2j9p7J840v3lhF15EUdlhd5YO4IQRSAizGiFqpiTJM6vad7ZqUKJw2kwbguIL96Pkf+pEd9NaziPoe+BLAbQdRCpXecqhL61afWhlCFnQeQX52fo71/dgPqGINOXwLYjSBqqfI6T3/WagIWtAdaocufJ/oSwH6MEe2aW2vJIRQAgDZSa4g+Nl6pR72oiFqKKsY4mimQDX3JOPqSMu3K5ee+kbfjct5Sf+L88Hu2bsny8rasy6ycXok7/3pO+jEORJw201tEfkdf0/oFnArUp0/ZGW38OVu1oH2K7c6KimiDRHWqbdOF5wjUjb4E5diRjWnFxlVVjbwhy1d29Q1FUQH4hvO3/yGXt/RNEdYuO0HXCZdPjoVQ73cnQqgy2JanHxvImr6ax+am+XNeONGX0/2hnL0QFwCrk2a7s6IiarEu/jffxecMlI2+xENfUrahvOYEt6vSi6jm+T/zHDx1SFZOzOhrefmV2CkVurhq6F7FL/y7o+0tYlvXLtyQs6spKoh6u45HVG+rlHq7M6Ai2jBt/i+/zc8NsA19CarVk5c+PiyXTs2619YvDqZWL4vmVkOdbTgaPiSvK34HT/VDQasnT+ptzW9XNm+qrzOyYBrmjszJ6b7I1fduyaa+KR2/SpxweW7a38+w3RkQRAEAQCW8w87qux1Z/SJ42FdVIFU4ijgU7k4wig5PqmJ37DF/XOqOvL08ut9r1927OIZyTZ3qa6k3MeZyYcGrdK7/EHFoXjug75OdHrIQ8fjxZmTxqBOEB9vy/t7zqFqW7U6PIGqxuMNIbfxvP+45cSgNyI++hL7EHjNy8ilvwtK08LcnarKME85eTTPO9PrQO8R+T0SFU1ce1fjVsbGrzuO640YnxpRmEHh8LziPLtPGyy483JODztern2cZK+q8zm8dls8+TrhMm4yVcbvTIog2VJt2IG3cGQJNQV+Cys3PugFLbu4mHHbelcvv+eM3R+HJP7yvLJ5Rtx3SVdbx+/ljK/3D79GVTRXY+nLc+W794jejsKXCr5rlX8Csef/x1d8/qyqzAe5jxh0en5/x1vJOfJ3KkXm7UyKIWq7L/8VTwQCKQ1+Ctlg4cX+qyUM/upXXWTkQO85RjV/1w+zI8X+LWWoqJe/xHSrY6pDsX84vObfHVnidbVbbNBjKWoXjaX3ZtzsdgmgDxHWibfjvP+45sOMAikdfgmbxD+PrsZ8lLWek1u30xpmq2f5O0FqZ8w6Jv+I8ZgFVP69q61wi1lBdPKOrsdeGEY8zIwv36m9Tyz9ZKft2p0MQbbgm70DasPMD2oK+BJXZ2pF19fVeJ2i5N0xxpC+fndNBSK9DWtQhYWVvIXu36qeXnJrfLyuBqt/Tpa7n6Vc9d+RH74aGKG67CaINMe2/+iZ2wtO2mQoGUB76EtTLH/cZM3koigqjqjLnBEVVhXPDYYowerf7ODuyMXF4eyjvuwvZ9+T8lKqfrA4LWdS+WgVMVqoIQbRBknYgTdiJJG0nOw6gfPQlqMvmlYFeaqknz6ZeJD4wljPFuEl/iaaN2LME7crm1L+V9PNppixLpWwNVaFXpD8rd3u3BPjreNYhz3anQxBtmKTO1eYdSNK2seMAqkNfgmp5Yxb9U2keP2dyHnUVhsKn7fRPIxpcZN0fSxlem1Q70vPGM04sF6UPL6sxqK+HK6xqe/WZoPo9Wdx7LD+gTT+d6EhPjqpD/M7vTZ6y03mM19VC+87r8VRUZVI/17HHr0qe7U6HU3w2lMlOwpa3tknbCnQNfQmKo0La6DSecaJPmen/bvD0oFP+nhrTGTicvjfWMyB4ekzvVJURpx6NWqc0ZPw0m/42pTnt5fTXJfYUovq0pOuh51qdjNudEhXRhjLpbFWnbdJxl8X08dlxAPWhL0Fx/ApjNBVc1LhE8/DSk5f0DPYg9++Egpla0smdXLTH2ZZASFw8qf7OUN4JLzfkjj/VY0HD+nNyydne8XO9q+EB6v5pTnvpnd50fPsUb93TuNdj84uhrKv7nKwjhCrZtjstKqItYLqDqOqtTrPDovkB9UsbMulL0ERuVfSmEy7zTtBRVdT3ZvP/nanU0IBv5G0pYHstR0W04dJ01Oq+/qVoaf+22mmw4wDql6U/SPt5TyPt36YvgSm3KjrIe+52JyC+tyunXyw5HF7fdid1FTEG03ZURBusyJ1A2maQ57FpcoAd4j7H6jOa9TNOXwKruWNCZXKsqFV0NfTeusaGVosg2kBFBtAq0dQAe0zrR/zPqq19DX0J2sybeDVjeVguDkG0YZJ2DOG304YdCU0MsItJCA2zKZTSpwDtwRjRBkkbQhV1G502ABPT+gqb+hLVF9oUjAFkR0W0AUw63DRvY1kduNqGuL9NMwPsUORntMy+xJf0GPQtQLMRRC1XVSecdocS97hF7uQAFKuKz2dRfUlQVf0ggOoRRC3W1M6XMArYZ1p/0oTPpknApY8BmocxopZqcgUgbttMdiQAitf0EKqo7UzaVvoYoHkIopZRHWnSTqMpOw4A9WtDCA0ijALtQhC1SFIH2qSdRty2spMAqtO2EOozCaP0NUAzEEQt0aYQ6iOMAvVpawj1qedgEkgB2I0gaoE2htAk7CCA8rQ9hAYRRoFmI4jWSHWQSTuMpu802hiigaZq6+fRJIwSSAE7EURrktQptmmHEfdc2DEAxYv7XLX9n0L1/EwCKQC7EERr0KUQ6iOMAuXj85Tcf/IaAXYhiFZIdYDTOkGT/+gBIEpS39IlJmGUQArYgSBakaROrws7irjnyA4ByIcQOkk9b5NACqBeBNEKEEJHCKNAsQih0xFGAbsRREtGCAVQFkKoGZMwSiAF6nGH8wGltyoBAXS6uNeH5giYIYRmQ98M2IWKaAno6JLFvQZJrx2A6ehfpkt6feiDgGoRRAtGCAVQtrh+hv7FjEkYJZAC1eDQfEFMOi1e6knsUIF0+MwUK6nv5nUFykVFtAAmHRmdWbS418Uk2ANdw+eieEl9M685UC6CaE78N50fYRRINu3zQD+Tj0kYpT8CykEQzYEQCqAKhNDyqdfRJJACKBZjRDMggJYj7nXl9USXEUKrRx8PVIeKaEp0UOWJe+2SXnOgrQih9Uh6bdX7Qr8EFIMgmgIhFEBVCKH1Uq+xSSAFkA9B1BAhtBpxryMdPuChr6mWSRilfwKyY4xoAgJoPeJed15vdAHt3z4mYZP3B0iPiugUhFAAVTMJPKie6u+T+nzeOyA9gmgMQmi94l5fOnq02bT2TZ9jB5MwSj8FmCOIhph0IuwQqkEYRZdMa9f0OXYxeT/opwAzjBENIIDaKe594f1AWxBCm4v9BpAPFVGNzgRAHQihzZb0Hqn3N2n/AnQZQdRBCLVb3OtP546mI4S2g3qvTAIpgEmdDqKqY0jaEbAzsEPc+0Dnjjai32kmwiiQXmeDaFKHwI4AQJni+iD6nmYzCaMEUmCkk0GUENpMce8LnTqahhDabup9NAmkADoYRAmhzUYYRdPRVruDMAok60wQVR/4aR96k/9gASCPpD4I7WMSRgmk6LJOBNGkDzk7gGaJe7/ozGEzQmh3qffXJJACXdT6IEoIbSfCKJqEEAqFMApMau2ZlUw+0OwAmi/ufea9hS0IoQhj/wSMtLIimvQhVx9wPuQAykYIRRSTfZBJWAXaoHVB1CSEoj3i3k86cdiMfggKYRRoWRAlhHYTYRQ2imt/9EMIMgmj9GVoMyvHiJp+6PxNT7o/HX/7sdOHTab1SbRJxGFfhi6qPYiahs6s+OB2B2EUNiCEIg/CKLqm8iBadvAM40PbLYRRlCVv30UbhCmTthZsT6ZtkzYIG1UWRKsOoGF8ALvBJIjSaSNJGf0V7QlpVbXfpG2iTqUG0brDZxw+dO1Wdruj/bRP1X0VbQimaJtou9KCaNYPT9rNqepx0Ax02kij6vYSRvtBHNomuqLwIJr2w1N0Y6/78VEPOm2YqrutxKENgbaJLio0iJp+iKpq1LZtD4pFp420sraZtO9pVY+D9qBtoqsKCaKmDbuuhmz79iE9Om2kkfZ9LPr9q/vxYS/aJroudxA1acS2NNwmbSui0WkjLdP3rKr3yrbtQX1om4DT7pwGlblFJTVaWxtrU7e76+i0kYbt7w/tp7tom8BI5iCa1FBtb6BN3/4uodNGWibviS3vR5O2FfnRNoFxmYLotMbZtEbZpufSRnTaSCvpfbD1PWjqdsMcbROY9C/6ayGa2BinbbNJsEB5TDo/m9qcyfbQpsrV5B0mbafdaJtAtNQV0bgGZ/OHyERbn1dTNbnTVpq+/U007TVv2uvdpucC2iYwTaqKaFwDbEPji3sO0z50KEdSR9eE9pa0nbSr6jShvYTRdrqBtgkUfGi+rfhw2YFOG3HiXssmthlfk7cdI7RNYDrjINrGD1MYH6760WkjrTb3TXHPIe45wy60TSCZURBt84cpjA9Xfei0AXO0HdiKtok0ODQP1IxOO7s2//Pia+M//F1A2wTMZA6ibW6AfLiqR6eNtLrQZnxxz4l/YuxE26RtFmdXf22vxOWbuvSBCurq865DLa/1rTflvq8+1VfC+vLHR/4iy/v01YLRtorRtdeRdtMctE0PbbMIKojOeN+2VKaKaBcaFx+gdtu4/YP+Dm3S5s8tfVKz0TaRTbtDqJKpIlpVo1u98bgs/1RudWqaOp97l9TxOtO2mq2rFZiuPu8mqe49+lL+8OGf5AN9Ld4jsvLrF2RJXysLbRNZWTtZaeO7552goK+gteI6r3Jtyfe31dd75L4aQmicel6L9qhlh3f7b/KbDx+X+wKX33y3pX9YPHbqzdSF9422iaymVkRr+w9nbPxefVUrJeo14ANXnHpeX11JuOtl+f7wQ/q26tG2srPhtVP/LD/67UBfC7nzGfnk2G/lgL5aJNqN3ex4f7Zk5bPfyZ9/FnniwY/kjf365pLRNpFF6opo6Y1KVRhUCL3zEXniTn0bUKRba+7hrAf23eUeoq+qmoUWcfqp37shVB32/Ei+37u8LE+on//8rvz1lvoGqN7GdxfcEPrAr/5aWQgFsrLs0LzzX9yNd+Vr1bkfOyEH9a1AkfyJSl9/+7uJ4R/qtvs++5ts6OuwT1TVpWqr36l+SlWbwmPvHpI3HnzE/e6D7S/dr0WLKgbY8JrAkvfB/yfpzmfk//xiXt9YDdomsrAqiK7eUIcS1KH48gdWo351dVAbt/XhVHVofqya9ZGs3OXc/vO78vsKKqN02sWp9vDfl/I/6h8YZ0f/u6hq0/4XvPZU47AP2KPatukXc5x/kn5ZztAQoGjWBFF/ctITD9Y3HhT1q6LTXjqsg2dEUFg67B1a/Xr7OlVRRLv9o/xTfd13t7OjV2PxGN4BS9y64h6Sj/0nCbCQHUH01pveoP+7XmY8C2p2lxxUY5N/3iSIItr/broVpwf2/Sh/+NCbEBLE8A7Uw/mn6J/eJF+qoWiS+oPo3uSkZ+QTDmUBaIivv31XPnBX9RgN7fj+13+VP7r/yFQzvAPYc/u6/DfVUDRQ7UF049bnbnVBddyPBg5v3bdXaRjInz9V19+UVXUVyEUt3TSlPe115gtUFJAgamm5eVk+xvAOVM/flz4wd4S+C40yNYh2fTJF1HOtduA5iveQ/LuakCSfyvKN8KxmBvrDwL8uyAPq653/Jo9GjmdneAeqtiWfbKtJmH35j/3VzpQH8qq9InrgF38JHNaKOMS1d+iLmfQohj8hSX76U6ACP6rCs/YegGb5SdbdIzlx/xwB9rJjshJQqYfkDeefHXeppjHePz1/r3jtPaRT+5GafUfkP/Q40MhF60se3sGRGnvV1jb1STq8lRzqQ9tEFpmCaKWdfk268BzrVneg2FvGae9S7dJhdNpNNS/Lv9SL1n/1vKzcdr/VGN6B6vkn6VBniwOaJjGIsmMc4bUA4Nr/gq6o+5Mpx4d3sBQd6vDLfRzNQfPc4YSrxHQVV6VqazDr2vOtU5erglREs7PmM3rrTblPLT8X8MSDH5UWQumb7NfV94i2iawIohH4QFWHTnscbcxc1GvYxXZDm7EPbdND24QJozGicY0pbmfaZHHPiQ9UOXhdR3gt8mtjn+Rr83PrAtomEC33rPk2NUA+TPag0wYAoP2Mg2iXqzVUqgD7xH0u2xj0454TfZOdaJu0TZhLVRFt84eLD1N96LRpZ0VrU9tp4+egy2ibwLjch+Z9TW6QfJjsRaeNaboc4PnnxW60TcBM6iA6rYE1cUc7bZv5MFWHThtZxb1+bQj+cc+BNtMMtE0gWaaK6LSGphpnEz5kSdvJh6l6dNooWpPbThvaPeLRNgFP5kPzSTtQmxtq0rYRDuxDp41ppn1mm/j6T9tm+qdmoW0C0xktaD+NyQfJlsbZpG3tsjZ1dHTa1Ur6jNv+mjd9+xGPtglEyx1ElaQG6qurodq+fZhEp42smvra02baj7YJTCokiPqSGquvqkZruj0KHyT70GkjK5PPvi3vQ5O2FfnRNoFxhQZRxaThBhXdiOt+fBSLThtZmfYFdb0ntm8fykPbBEYKD6I+04YclnZzsj6OwoeoGei0kYdt70/S9tBOuqNpbTOIdoqilBZElTSNukp8gJqJThtZpe2Lin6/aCuI06S2qdA+UbRSg2hQ2sZeBj5AzUenjTyy9kNp38e8/R3tpnua0DZplyhDZUHUl7eDTosPTjvRaSOrqvugaVQbidse2k/32NQ2g2iLKFPlQTSorA8dH5puoNNGXnW3IdVWpm0Dbam7bOjfaH+oQq1BNEraDx8fFCh02sij6vYTbitxj0+bQt1tEyibdUEUyINOG3mV1YaS2gphFEnqaptAmQiiaC06bRQlbVvK2kYIo0irqrYJlIUgik6h04bNCKIAuoYgCgAWIYwC6JJ/0V8BABaIC5xpq/kA0AQEUQAAANSCIAoAlqEqCqArCKIAYCHCKIAuIIgCAACgFgRRALAUVVEAbUcQBQCLEUYBtBlBFAAsRxgF0FYEUQAAANSCIAoADUBVFEAbEUQBoCEIowDahiAKAACAWhBEAaBBqIoCaBOCKAA0DGEUQFsQRAEAAFALgigANBBVUQBtQBAFgIYijAJoOoIoADQYYRRAkxFEAQAAUAuCKAA0HFVRAE1FEAWAFiCMAmgigigAAABqQRAFgJagKgqgaQiiANAihFEATUIQBQAAQC0IogDQMlRFATQFQRQAWogwCqAJCKIA0FKEUQC2I4gCAACgFgRRAGgxqqIAbEYQBYCWI4wCsBVBFAAAALUgiAJAB1AVBWAjgigAdARhFIBt7nA6puieCQDQOnGhM7grMA2m7D4A5EUQBYCOKbsCym4FgCmCKAB0SNWH4dnFAJiGIAoAHVD3OFB2NQCiEEQBoKXqDp9x2O0A8BFEAaCFsobQtLuEqh4HQDsRRAGgRdIGw6J3AXU/PoBmIYgCQEuYhsCqun3btgeAfQiiANBwtgc+AimAOARRAGgwk5BnSzffpG0FUA2CKAA0VFKws7V7b+p2Ayge55oHgAZqcphL2jaTyimAdqAiCgANMy2oNa1Lb9NzAZAeFVEAaIkmBrdp20xlFGg/gigANEhcOGty9ZDKJ9BdBFEAaIg2hlBf3HOgKgq0G0EUAGA1wijQXgRRAGiANldDfRyiB7qHWfMAYLm6Qujqjcdl+Sd9Zc8jsvLrF2RJXytDF0I3AA9BFAAsV3kwu/03+c2n78rX+mqUJx78SN7Yr68UjCAKdAeH5gGggcoLZVuycsMPoar6+ZF8v3d5WZ5wbxf54Ks3ZVV/XzQCJ9AdBFEAsFhcdbA0t6/Lf/+svunLHx8JH4J/SN545Bl5wP3+U/mfW+43lan8tQBQOoIoADRMqRXD/93U1dB75L597jfj9t0tv9TflomqKNANBFEAwMi/LkyveN5akw/cbx6Rfy9pjCiA7iCIAgBG9v1Wnr/L+/aDr56Xldve954v5Q9ffep+98CvTpQ6cx5ANzBrHgAsVd/s8S1Z+ex38md3rKjjrpflk33/Vx79duBefeBXf5W//2Le/b5sUa8Buy2gPQiiAGCpukPYxnfP74VPT/lriIYRRIF2I4gCgKVqDWFT1hKlIgqgKARRALBUXSEsWAkNLlw/dqalO5+RT479Vg7oq2UhiALtxmQlAMDIrTd1CFXriI6fPWnp8Efy/YOPeFd+fld+/92W9z0AZEQQBQBoW7LyT29WvNz1n7IctY7o/hdkRc+q/3r7umx43wJAJgRRAMCEB/bptBnhwL6+/g4A8iGIAgAmfH3bHww6aeN2cCY9AGRHEAUAS0VNyomavFOceXl0Tlc7f/qT3HfjS+/7gOCEpSd+We5kJSYqAe3HrHkAsFj1YSy0mH2cu16W7w8/pK+UgyAKtB9BFAAsVlsYi11HtLpF7QmiQPsRRAHAYlFhTGl7193V5w10DWNEAcBiBK8RXgugfQiiANBAcRXDNmjzcwMwjiAKAACAWhBEAcBycYek21g5ZGwo0C0EUQBosDaFUQ7JA91DEAWABuhyRZBqKNBeBFEAaIg2H6LnkDzQTQRRAGiBJodRDskD3UUQBYAGmVYhbGKgm7bNVEOB9uPMSgDQQEmh0/auvenbD6AYVEQBoIGSgprN1VFCKAAfFVEAaDCTwGlLN9+kbQVQDYIoADScafWzru7e9u0DUB+CKAC0hG2Bz3R7FHZFQDcRRAGgRdKEP6XoXUDdjw+gWQiiANBCaQOhL+0uIevjKOx+ABBEAaCl8oTEMrHbAeAjiAJAB9gQStndAAgjiAJAh1QdSNnFAJiGIAoAHVVWKGW3AsCMyP8HL8WTWb/AIooAAAAASUVORK5CYII=;" vertex="1" parent="1">
                    <mxGeometry x="90" y="1340" width="674" height="355" as="geometry"/>
                </mxCell>
                <mxCell id="75" value="&lt;h1&gt;0&lt;/h1&gt;" style="ellipse;whiteSpace=wrap;html=1;aspect=fixed;" vertex="1" parent="1">
                    <mxGeometry x="305" y="670" width="80" height="80" as="geometry"/>
                </mxCell>
                <mxCell id="76" value="&lt;h1&gt;1&lt;/h1&gt;" style="ellipse;whiteSpace=wrap;html=1;aspect=fixed;" vertex="1" parent="1">
                    <mxGeometry x="195" y="790" width="80" height="80" as="geometry"/>
                </mxCell>
                <mxCell id="77" value="&lt;h1&gt;2&lt;/h1&gt;" style="ellipse;whiteSpace=wrap;html=1;aspect=fixed;" vertex="1" parent="1">
                    <mxGeometry x="425" y="790" width="80" height="80" as="geometry"/>
                </mxCell>
                <mxCell id="78" value="" style="endArrow=none;html=1;" edge="1" parent="1">
                    <mxGeometry width="50" height="50" relative="1" as="geometry">
                        <mxPoint x="265" y="790" as="sourcePoint"/>
                        <mxPoint x="315" y="740" as="targetPoint"/>
                        <Array as="points">
                            <mxPoint x="255" y="800"/>
                            <mxPoint x="265" y="790"/>
                        </Array>
                    </mxGeometry>
                </mxCell>
                <mxCell id="79" value="" style="endArrow=none;html=1;entryX=0;entryY=0;entryDx=0;entryDy=0;exitX=1;exitY=1;exitDx=0;exitDy=0;" edge="1" parent="1" source="75" target="77">
                    <mxGeometry width="50" height="50" relative="1" as="geometry">
                        <mxPoint x="365" y="770" as="sourcePoint"/>
                        <mxPoint x="415" y="720" as="targetPoint"/>
                    </mxGeometry>
                </mxCell>
                <mxCell id="80" value="&lt;div style=&quot;background-color: rgb(30 , 30 , 30) ; font-family: &amp;#34;droid sans mono&amp;#34; , monospace , monospace , &amp;#34;droid sans fallback&amp;#34; ; font-size: 14px ; line-height: 19px&quot;&gt;&lt;span style=&quot;color: rgb(212 , 212 , 212)&quot;&gt;&lt;span style=&quot;color: #dcdcaa&quot;&gt;distanceBtwTwoNodes&lt;/span&gt;(&lt;/span&gt;&lt;font color=&quot;#b5cea8&quot;&gt;4&lt;/font&gt;&lt;font color=&quot;#d4d4d4&quot;&gt;,&lt;/font&gt;&lt;span style=&quot;color: rgb(181 , 206 , 168)&quot;&gt;5&lt;/span&gt;&lt;font color=&quot;#d4d4d4&quot;&gt;) = 2&lt;/font&gt;&lt;/div&gt;" style="text;html=1;strokeColor=none;fillColor=none;align=center;verticalAlign=middle;whiteSpace=wrap;rounded=0;" vertex="1" parent="1">
                    <mxGeometry x="214.5" y="630" width="261" height="20" as="geometry"/>
                </mxCell>
                <mxCell id="81" value="&lt;h2&gt;Case 2&lt;/h2&gt;" style="text;html=1;align=center;verticalAlign=middle;resizable=0;points=[];autosize=1;" vertex="1" parent="1">
                    <mxGeometry x="35" y="630" width="70" height="50" as="geometry"/>
                </mxCell>
                <mxCell id="82" value="&lt;h1&gt;3&lt;/h1&gt;" style="ellipse;whiteSpace=wrap;html=1;aspect=fixed;" vertex="1" parent="1">
                    <mxGeometry x="105" y="910" width="80" height="80" as="geometry"/>
                </mxCell>
                <mxCell id="83" value="&lt;h1&gt;4&lt;/h1&gt;" style="ellipse;whiteSpace=wrap;html=1;aspect=fixed;fillColor=#0050ef;strokeColor=#001DBC;fontColor=#ffffff;" vertex="1" parent="1">
                    <mxGeometry x="345" y="910" width="80" height="80" as="geometry"/>
                </mxCell>
                <mxCell id="84" value="&lt;h1&gt;5&lt;/h1&gt;" style="ellipse;whiteSpace=wrap;html=1;aspect=fixed;fillColor=#0050ef;strokeColor=#001DBC;fontColor=#ffffff;" vertex="1" parent="1">
                    <mxGeometry x="505" y="910" width="80" height="80" as="geometry"/>
                </mxCell>
                <mxCell id="85" value="" style="endArrow=none;html=1;entryX=0;entryY=1;entryDx=0;entryDy=0;exitX=0.783;exitY=0.075;exitDx=0;exitDy=0;exitPerimeter=0;" edge="1" parent="1" source="82" target="76">
                    <mxGeometry width="50" height="50" relative="1" as="geometry">
                        <mxPoint x="305" y="910" as="sourcePoint"/>
                        <mxPoint x="355" y="860" as="targetPoint"/>
                    </mxGeometry>
                </mxCell>
                <mxCell id="86" value="" style="endArrow=none;html=1;" edge="1" parent="1" source="83" target="77">
                    <mxGeometry width="50" height="50" relative="1" as="geometry">
                        <mxPoint x="177.6400000000001" y="926" as="sourcePoint"/>
                        <mxPoint x="216.7157287525381" y="868.284271247462" as="targetPoint"/>
                    </mxGeometry>
                </mxCell>
                <mxCell id="87" value="" style="endArrow=none;html=1;exitX=0.358;exitY=0.025;exitDx=0;exitDy=0;exitPerimeter=0;" edge="1" parent="1" source="84">
                    <mxGeometry width="50" height="50" relative="1" as="geometry">
                        <mxPoint x="187.6400000000001" y="936" as="sourcePoint"/>
                        <mxPoint x="491" y="861" as="targetPoint"/>
                    </mxGeometry>
                </mxCell>
                <mxCell id="88" value="1" style="text;html=1;align=center;verticalAlign=middle;resizable=0;points=[];autosize=1;" vertex="1" parent="1">
                    <mxGeometry x="385" y="875" width="20" height="20" as="geometry"/>
                </mxCell>
                <mxCell id="90" value="2" style="text;html=1;align=center;verticalAlign=middle;resizable=0;points=[];autosize=1;" vertex="1" parent="1">
                    <mxGeometry x="530" y="870" width="20" height="20" as="geometry"/>
                </mxCell>
                <mxCell id="93" style="edgeStyle=orthogonalEdgeStyle;rounded=0;orthogonalLoop=1;jettySize=auto;html=1;entryX=1.063;entryY=0.375;entryDx=0;entryDy=0;entryPerimeter=0;" edge="1" parent="1" source="92" target="77">
                    <mxGeometry relative="1" as="geometry">
                        <mxPoint x="520" y="820" as="targetPoint"/>
                    </mxGeometry>
                </mxCell>
                <mxCell id="92" value="First we find lca(4,5)= 2&amp;nbsp;&lt;br&gt;" style="text;html=1;align=center;verticalAlign=middle;resizable=0;points=[];autosize=1;" vertex="1" parent="1">
                    <mxGeometry x="585" y="810" width="140" height="20" as="geometry"/>
                </mxCell>
                <mxCell id="94" value="Then we&amp;nbsp; find distance of another two node form lca node then sum them&lt;br&gt;" style="text;html=1;align=center;verticalAlign=middle;resizable=0;points=[];autosize=1;" vertex="1" parent="1">
                    <mxGeometry x="275" y="1020" width="400" height="20" as="geometry"/>
                </mxCell>
            </root>
        </mxGraphModel>
    </diagram>
</mxfile>